<svg width="21" height="21" viewBox="0 0 21 21" fill="none" xmlns="http://www.w3.org/2000/svg">
<path d="M10.3333 9.33301C10.0681 9.33301 9.81378 9.43836 9.62624 9.6259C9.43871 9.81344 9.33335 10.0678 9.33335 10.333V14.333C9.33335 14.5982 9.43871 14.8526 9.62624 15.0401C9.81378 15.2277 10.0681 15.333 10.3333 15.333C10.5986 15.333 10.8529 15.2277 11.0405 15.0401C11.228 14.8526 11.3333 14.5982 11.3333 14.333V10.333C11.3333 10.0678 11.228 9.81344 11.0405 9.6259C10.8529 9.43836 10.5986 9.33301 10.3333 9.33301ZM10.7133 5.41301C10.4699 5.31299 10.1968 5.31299 9.95335 5.41301C9.8306 5.4606 9.71845 5.53197 9.62335 5.62301C9.53502 5.72021 9.46399 5.83182 9.41335 5.95301C9.35737 6.07169 9.32997 6.20183 9.33335 6.33301C9.33259 6.46461 9.35781 6.59508 9.40758 6.71691C9.45734 6.83875 9.53067 6.94957 9.62335 7.04301C9.72055 7.13134 9.83216 7.20237 9.95335 7.25301C10.1048 7.31525 10.2693 7.33932 10.4323 7.32312C10.5953 7.30692 10.7518 7.25093 10.8881 7.16008C11.0243 7.06923 11.1362 6.94629 11.2139 6.80208C11.2915 6.65787 11.3325 6.49679 11.3333 6.33301C11.3297 6.06824 11.2261 5.81464 11.0433 5.62301C10.9482 5.53197 10.8361 5.4606 10.7133 5.41301ZM10.3333 0.333008C8.35554 0.333008 6.42214 0.919498 4.77765 2.01831C3.13315 3.11713 1.85143 4.67891 1.09455 6.50617C0.337676 8.33343 0.139643 10.3441 0.525495 12.2839C0.911347 14.2237 1.86376 16.0056 3.26228 17.4041C4.66081 18.8026 6.44264 19.755 8.38245 20.1409C10.3223 20.5267 12.3329 20.3287 14.1602 19.5718C15.9874 18.8149 17.5492 17.5332 18.648 15.8887C19.7469 14.2442 20.3333 12.3108 20.3333 10.333C20.3333 9.01979 20.0747 7.71943 19.5721 6.50617C19.0696 5.29292 18.333 4.19053 17.4044 3.26194C16.4758 2.33335 15.3734 1.59676 14.1602 1.09421C12.9469 0.591666 11.6466 0.333008 10.3333 0.333008ZM10.3333 18.333C8.7511 18.333 7.20438 17.8638 5.88879 16.9848C4.57319 16.1057 3.54781 14.8563 2.94231 13.3945C2.33681 11.9327 2.17838 10.3241 2.48707 8.77229C2.79575 7.22044 3.55767 5.79497 4.67649 4.67615C5.79531 3.55733 7.22078 2.79541 8.77263 2.48673C10.3245 2.17804 11.933 2.33647 13.3948 2.94197C14.8566 3.54747 16.1061 4.57285 16.9851 5.88845C17.8642 7.20404 18.3333 8.75076 18.3333 10.333C18.3333 12.4547 17.4905 14.4896 15.9902 15.9899C14.4899 17.4902 12.4551 18.333 10.3333 18.333Z" fill="white"/>
</svg>
