<svg width="25" height="25" viewBox="0 0 25 25" fill="none" xmlns="http://www.w3.org/2000/svg">
<path d="M12.3333 14.333C14.5393 14.333 16.3333 12.539 16.3333 10.333C16.3333 8.12701 14.5393 6.33301 12.3333 6.33301C10.1273 6.33301 8.33334 8.12701 8.33334 10.333C8.33334 12.539 10.1273 14.333 12.3333 14.333ZM12.3333 8.33301C13.4363 8.33301 14.3333 9.23001 14.3333 10.333C14.3333 11.436 13.4363 12.333 12.3333 12.333C11.2303 12.333 10.3333 11.436 10.3333 10.333C10.3333 9.23001 11.2303 8.33301 12.3333 8.33301Z" fill="white"/>
<path d="M11.7533 22.147C11.9226 22.2679 12.1254 22.3328 12.3333 22.3328C12.5413 22.3328 12.7441 22.2679 12.9133 22.147C13.2173 21.932 20.3623 16.773 20.3333 10.333C20.3333 5.92201 16.7443 2.33301 12.3333 2.33301C7.92234 2.33301 4.33334 5.92201 4.33334 10.328C4.30434 16.773 11.4493 21.932 11.7533 22.147ZM12.3333 4.33301C15.6423 4.33301 18.3333 7.02401 18.3333 10.338C18.3543 14.776 13.9453 18.761 12.3333 20.068C10.7223 18.76 6.31234 14.774 6.33334 10.333C6.33334 7.02401 9.02434 4.33301 12.3333 4.33301Z" fill="white"/>
</svg>
