<svg width="22" height="22" viewBox="0 0 22 22" fill="none" xmlns="http://www.w3.org/2000/svg">
<path d="M4.58333 0.5C3.50037 0.5 2.46175 0.930207 1.69598 1.69598C0.930207 2.46175 0.5 3.50037 0.5 4.58333V6.758C0.5 7.06742 0.622916 7.36417 0.841709 7.58296C1.0605 7.80175 1.35725 7.92467 1.66667 7.92467C1.97609 7.92467 2.27283 7.80175 2.49162 7.58296C2.71042 7.36417 2.83333 7.06742 2.83333 6.758V4.58333C2.83333 4.1192 3.01771 3.67408 3.3459 3.3459C3.67408 3.01771 4.1192 2.83333 4.58333 2.83333H6.758C7.06742 2.83333 7.36417 2.71042 7.58296 2.49162C7.80175 2.27283 7.92467 1.97609 7.92467 1.66667C7.92467 1.35725 7.80175 1.0605 7.58296 0.841709C7.36417 0.622916 7.06742 0.5 6.758 0.5H4.58333ZM15.242 0.5C14.9326 0.5 14.6358 0.622916 14.417 0.841709C14.1982 1.0605 14.0753 1.35725 14.0753 1.66667C14.0753 1.97609 14.1982 2.27283 14.417 2.49162C14.6358 2.71042 14.9326 2.83333 15.242 2.83333H17.4167C17.8808 2.83333 18.3259 3.01771 18.6541 3.3459C18.9823 3.67408 19.1667 4.1192 19.1667 4.58333V6.758C19.1667 7.06742 19.2896 7.36417 19.5084 7.58296C19.7272 7.80175 20.0239 7.92467 20.3333 7.92467C20.6428 7.92467 20.9395 7.80175 21.1583 7.58296C21.3771 7.36417 21.5 7.06742 21.5 6.758V4.58333C21.5 3.50037 21.0698 2.46175 20.304 1.69598C19.5382 0.930207 18.4996 0.5 17.4167 0.5H15.242ZM2.83333 15.242C2.83333 14.9326 2.71042 14.6358 2.49162 14.417C2.27283 14.1982 1.97609 14.0753 1.66667 14.0753C1.35725 14.0753 1.0605 14.1982 0.841709 14.417C0.622916 14.6358 0.5 14.9326 0.5 15.242V17.4167C0.5 18.4996 0.930207 19.5382 1.69598 20.304C2.46175 21.0698 3.50037 21.5 4.58333 21.5H6.758C7.06742 21.5 7.36417 21.3771 7.58296 21.1583C7.80175 20.9395 7.92467 20.6428 7.92467 20.3333C7.92467 20.0239 7.80175 19.7272 7.58296 19.5084C7.36417 19.2896 7.06742 19.1667 6.758 19.1667H4.58333C4.1192 19.1667 3.67408 18.9823 3.3459 18.6541C3.01771 18.3259 2.83333 17.8808 2.83333 17.4167V15.242ZM21.5 15.242C21.5 14.9326 21.3771 14.6358 21.1583 14.417C20.9395 14.1982 20.6428 14.0753 20.3333 14.0753C20.0239 14.0753 19.7272 14.1982 19.5084 14.417C19.2896 14.6358 19.1667 14.9326 19.1667 15.242V17.4167C19.1667 17.8808 18.9823 18.3259 18.6541 18.6541C18.3259 18.9823 17.8808 19.1667 17.4167 19.1667H15.242C14.9326 19.1667 14.6358 19.2896 14.417 19.5084C14.1982 19.7272 14.0753 20.0239 14.0753 20.3333C14.0753 20.6428 14.1982 20.9395 14.417 21.1583C14.6358 21.3771 14.9326 21.5 15.242 21.5H17.4167C18.4996 21.5 19.5382 21.0698 20.304 20.304C21.0698 19.5382 21.5 18.4996 21.5 17.4167V15.242ZM6.33333 9.83333C6.02391 9.83333 5.72717 9.95625 5.50838 10.175C5.28958 10.3938 5.16667 10.6906 5.16667 11C5.16667 11.3094 5.28958 11.6062 5.50838 11.825C5.72717 12.0437 6.02391 12.1667 6.33333 12.1667H15.6667C15.9761 12.1667 16.2728 12.0437 16.4916 11.825C16.7104 11.6062 16.8333 11.3094 16.8333 11C16.8333 10.6906 16.7104 10.3938 16.4916 10.175C16.2728 9.95625 15.9761 9.83333 15.6667 9.83333H6.33333Z" fill="#11613E"/>
</svg>
