<svg width="25" height="24" viewBox="0 0 25 24" fill="none" xmlns="http://www.w3.org/2000/svg">
<path d="M20.375 6.82001C20.3798 6.75677 20.3798 6.69325 20.375 6.63001L18.375 1.63001C18.2969 1.43237 18.1578 1.26475 17.978 1.15147C17.7982 1.03819 17.587 0.985137 17.375 1.00001H3.375C3.17472 0.999818 2.979 1.05977 2.81318 1.17209C2.64737 1.28442 2.5191 1.44395 2.445 1.63001L0.445 6.63001C0.44018 6.69325 0.44018 6.75677 0.445 6.82001C0.411771 6.87568 0.38811 6.93652 0.375 7.00001C0.386131 7.69125 0.576226 8.36781 0.926745 8.96369C1.27726 9.55957 1.77624 10.0544 2.375 10.4V20C2.375 20.2652 2.48036 20.5196 2.66789 20.7071C2.85543 20.8947 3.10978 21 3.375 21H17.375C17.6402 21 17.8946 20.8947 18.0821 20.7071C18.2696 20.5196 18.375 20.2652 18.375 20V10.44C18.9796 10.091 19.4822 9.58984 19.8331 8.98635C20.184 8.38287 20.3708 7.69807 20.375 7.00001C20.3844 6.94038 20.3844 6.87965 20.375 6.82001ZM11.375 19H9.375V15H11.375V19ZM16.375 19H13.375V14C13.375 13.7348 13.2696 13.4804 13.0821 13.2929C12.8946 13.1054 12.6402 13 12.375 13H8.375C8.10978 13 7.85543 13.1054 7.66789 13.2929C7.48036 13.4804 7.375 13.7348 7.375 14V19H4.375V11C4.94447 10.9968 5.50669 10.872 6.02405 10.634C6.54142 10.3961 7.002 10.0503 7.375 9.62001C7.75037 10.0456 8.21201 10.3865 8.72925 10.62C9.24649 10.8535 9.8075 10.9743 10.375 10.9743C10.9425 10.9743 11.5035 10.8535 12.0208 10.62C12.538 10.3865 12.9996 10.0456 13.375 9.62001C13.748 10.0503 14.2086 10.3961 14.7259 10.634C15.2433 10.872 15.8055 10.9968 16.375 11V19ZM16.375 9.00001C15.8446 9.00001 15.3359 8.7893 14.9608 8.41423C14.5857 8.03915 14.375 7.53045 14.375 7.00001C14.375 6.7348 14.2696 6.48044 14.0821 6.29291C13.8946 6.10537 13.6402 6.00001 13.375 6.00001C13.1098 6.00001 12.8554 6.10537 12.6679 6.29291C12.4804 6.48044 12.375 6.7348 12.375 7.00001C12.375 7.53045 12.1643 8.03915 11.7892 8.41423C11.4141 8.7893 10.9054 9.00001 10.375 9.00001C9.84457 9.00001 9.33586 8.7893 8.96079 8.41423C8.58571 8.03915 8.375 7.53045 8.375 7.00001C8.375 6.7348 8.26964 6.48044 8.08211 6.29291C7.89457 6.10537 7.64022 6.00001 7.375 6.00001C7.10978 6.00001 6.85543 6.10537 6.66789 6.29291C6.48036 6.48044 6.375 6.7348 6.375 7.00001C6.38485 7.26266 6.34287 7.52467 6.25146 7.77109C6.16005 8.01751 6.021 8.24351 5.84225 8.43619C5.66349 8.62887 5.44854 8.78446 5.20966 8.89407C4.97078 9.00368 4.71264 9.06516 4.45 9.07501C3.91957 9.0949 3.40296 8.90327 3.01382 8.54226C2.82114 8.36351 2.66555 8.14855 2.55594 7.90967C2.44633 7.67079 2.38485 7.41266 2.375 7.15001L4.055 3.00001H16.695L18.375 7.15001C18.3371 7.65403 18.1098 8.125 17.7387 8.46822C17.3677 8.81143 16.8804 9.00144 16.375 9.00001Z" fill="#868687"/>
</svg>
