<svg width="19" height="21" viewBox="0 0 19 21" fill="none" xmlns="http://www.w3.org/2000/svg">
<path d="M17.875 6.99952L11.875 1.73952C11.325 1.24756 10.6129 0.975586 9.875 0.975586C9.13707 0.975586 8.42503 1.24756 7.875 1.73952L1.875 6.99952C1.55737 7.28359 1.3039 7.63207 1.13148 8.02176C0.959047 8.41145 0.871616 8.8334 0.875003 9.25952V17.9995C0.875003 18.7952 1.19107 19.5582 1.75368 20.1208C2.31629 20.6834 3.07935 20.9995 3.875 20.9995H15.875C16.6707 20.9995 17.4337 20.6834 17.9963 20.1208C18.5589 19.5582 18.875 18.7952 18.875 17.9995V9.24952C18.877 8.82508 18.7889 8.40506 18.6165 8.0172C18.4441 7.62934 18.1914 7.28247 17.875 6.99952ZM11.875 18.9995H7.875V13.9995C7.875 13.7343 7.98036 13.4799 8.1679 13.2924C8.35543 13.1049 8.60979 12.9995 8.875 12.9995H10.875C11.1402 12.9995 11.3946 13.1049 11.5821 13.2924C11.7696 13.4799 11.875 13.7343 11.875 13.9995V18.9995ZM16.875 17.9995C16.875 18.2647 16.7696 18.5191 16.5821 18.7066C16.3946 18.8942 16.1402 18.9995 15.875 18.9995H13.875V13.9995C13.875 13.2039 13.5589 12.4408 12.9963 11.8782C12.4337 11.3156 11.6707 10.9995 10.875 10.9995H8.875C8.07935 10.9995 7.31629 11.3156 6.75368 11.8782C6.19107 12.4408 5.875 13.2039 5.875 13.9995V18.9995H3.875C3.60979 18.9995 3.35543 18.8942 3.1679 18.7066C2.98036 18.5191 2.875 18.2647 2.875 17.9995V9.24952C2.87518 9.10753 2.9056 8.96721 2.96422 8.8379C3.02284 8.70858 3.10833 8.59323 3.215 8.49952L9.215 3.24952C9.39749 3.0892 9.6321 3.00078 9.875 3.00078C10.1179 3.00078 10.3525 3.0892 10.535 3.24952L16.535 8.49952C16.6417 8.59323 16.7272 8.70858 16.7858 8.8379C16.8444 8.96721 16.8748 9.10753 16.875 9.24952V17.9995Z" fill="#868687"/>
</svg>
