<svg width="21" height="21" viewBox="0 0 21 21" fill="none" xmlns="http://www.w3.org/2000/svg">
<path d="M10.3233 0.333008C4.80334 0.333008 0.333344 4.81301 0.333344 10.333C0.333344 15.853 4.80334 20.333 10.3233 20.333C15.8533 20.333 20.3333 15.853 20.3333 10.333C20.3333 4.81301 15.8533 0.333008 10.3233 0.333008ZM17.2533 6.33301H14.3033C13.9904 5.09447 13.5269 3.8989 12.9233 2.77301C14.7475 3.40101 16.2845 4.66473 17.2533 6.33301ZM10.3333 2.37301C11.1633 3.57301 11.8133 4.90301 12.2433 6.33301H8.42334C8.85334 4.90301 9.50334 3.57301 10.3333 2.37301ZM2.59334 12.333C2.43334 11.693 2.33334 11.023 2.33334 10.333C2.33334 9.64301 2.43334 8.97301 2.59334 8.33301H5.97334C5.89334 8.99301 5.83334 9.65301 5.83334 10.333C5.83334 11.013 5.89334 11.673 5.97334 12.333H2.59334ZM3.41334 14.333H6.36334C6.68334 15.583 7.14334 16.783 7.74334 17.893C5.91731 17.2684 4.37918 16.0038 3.41334 14.333ZM6.36334 6.33301H3.41334C4.37918 4.66219 5.91731 3.39758 7.74334 2.77301C7.13977 3.8989 6.67632 5.09447 6.36334 6.33301ZM10.3333 18.293C9.50334 17.093 8.85334 15.763 8.42334 14.333H12.2433C11.8133 15.763 11.1633 17.093 10.3333 18.293ZM12.6733 12.333H7.99334C7.90334 11.673 7.83334 11.013 7.83334 10.333C7.83334 9.65301 7.90334 8.98301 7.99334 8.33301H12.6733C12.7633 8.98301 12.8333 9.65301 12.8333 10.333C12.8333 11.013 12.7633 11.673 12.6733 12.333ZM12.9233 17.893C13.5233 16.783 13.9833 15.583 14.3033 14.333H17.2533C16.2845 16.0013 14.7475 17.265 12.9233 17.893ZM14.6933 12.333C14.7733 11.673 14.8333 11.013 14.8333 10.333C14.8333 9.65301 14.7733 8.99301 14.6933 8.33301H18.0733C18.2333 8.97301 18.3333 9.64301 18.3333 10.333C18.3333 11.023 18.2333 11.693 18.0733 12.333H14.6933Z" fill="white"/>
</svg>
