<svg width="25" height="24" viewBox="0 0 25 24" fill="none" xmlns="http://www.w3.org/2000/svg">
<path d="M19.125 13C19.6773 13 20.125 12.5523 20.125 12C20.125 11.4477 19.6773 11 19.125 11C18.5727 11 18.125 11.4477 18.125 12C18.125 12.5523 18.5727 13 19.125 13Z" stroke="#868687" stroke-width="2" stroke-linecap="round" stroke-linejoin="round"/>
<path d="M12.125 13C12.6773 13 13.125 12.5523 13.125 12C13.125 11.4477 12.6773 11 12.125 11C11.5727 11 11.125 11.4477 11.125 12C11.125 12.5523 11.5727 13 12.125 13Z" stroke="#868687" stroke-width="2" stroke-linecap="round" stroke-linejoin="round"/>
<path d="M5.125 13C5.67728 13 6.125 12.5523 6.125 12C6.125 11.4477 5.67728 11 5.125 11C4.57272 11 4.125 11.4477 4.125 12C4.125 12.5523 4.57272 13 5.125 13Z" stroke="#868687" stroke-width="2" stroke-linecap="round" stroke-linejoin="round"/>
</svg>
