<svg width="18" height="19" viewBox="0 0 18 19" fill="none" xmlns="http://www.w3.org/2000/svg">
<path d="M12 15C12 15.7956 11.6839 16.5587 11.1213 17.1213C10.5587 17.6839 9.79564 18 8.99999 18C8.20434 18 7.44128 17.6839 6.87867 17.1213C6.31606 16.5587 5.99999 15.7956 5.99999 15M9.72099 1.003L8.25499 0.999999C4.91099 0.991999 2.00799 3.709 1.98499 7V10.79C1.98499 11.58 1.88499 12.351 1.45399 13.008L1.16699 13.446C0.729988 14.11 1.19999 15 1.98499 15H16.015C16.8 15 17.269 14.11 16.833 13.446L16.546 13.008C16.116 12.351 16.015 11.579 16.015 10.789V7.001C15.975 3.709 13.065 1.011 9.72099 1.003V1.003Z" stroke="#3E3E40" stroke-width="2" stroke-linecap="round" stroke-linejoin="round"/>
</svg>
