<svg width="25" height="25" viewBox="0 0 25 25" fill="none" xmlns="http://www.w3.org/2000/svg">
<path d="M11.3623 2.87262C11.6594 2.70766 11.9936 2.62109 12.3333 2.62109C12.6731 2.62109 13.0073 2.70766 13.3043 2.87262L20.8193 7.04662C20.9751 7.13326 21.105 7.25998 21.1953 7.41365C21.2857 7.56731 21.3334 7.74235 21.3333 7.92062V16.1556C21.3333 16.5123 21.2378 16.8624 21.0569 17.1697C20.876 17.4771 20.6161 17.7305 20.3043 17.9036L13.3043 21.7936C13.0073 21.9586 12.6731 22.0451 12.3333 22.0451C11.9936 22.0451 11.6594 21.9586 11.3623 21.7936L4.36234 17.9036C4.0507 17.7306 3.79098 17.4773 3.61006 17.1702C3.42914 16.863 3.33361 16.5131 3.33334 16.1566V7.92062C3.33334 7.74235 3.38099 7.56731 3.47136 7.41365C3.56173 7.25998 3.69154 7.13326 3.84734 7.04662L11.3633 2.87262H11.3623Z" stroke="white" stroke-width="2" stroke-linecap="round" stroke-linejoin="round"/>
<path d="M6.33334 12.661L9.33334 14.333M7.83334 4.83301L16.8333 9.83301V13.333L7.83334 4.83301Z" stroke="white" stroke-width="2" stroke-linecap="round" stroke-linejoin="round"/>
<path d="M12.3333 12.333V21.833M3.33334 7.33301L12.3333 12.333L3.33334 7.33301ZM12.3333 12.333L21.3333 7.33301L12.3333 12.333Z" stroke="white" stroke-width="2" stroke-linejoin="round"/>
</svg>
