<svg width="25" height="25" viewBox="0 0 25 25" fill="none" xmlns="http://www.w3.org/2000/svg">
<path d="M21.3283 7.23275C21.3117 7.06469 21.2527 6.9036 21.1569 6.76456C21.0611 6.62552 20.9315 6.51307 20.7803 6.43775L12.7803 2.43775C12.6414 2.36823 12.4882 2.33203 12.3328 2.33203C12.1775 2.33203 12.0243 2.36823 11.8853 2.43775L3.88535 6.43775C3.73462 6.5135 3.60546 6.62609 3.50984 6.76506C3.41422 6.90403 3.35523 7.0649 3.33835 7.23275C3.32735 7.33975 2.37735 17.9997 11.9273 22.2467C12.055 22.3043 12.1933 22.3341 12.3333 22.3341C12.4733 22.3341 12.6117 22.3043 12.7393 22.2467C22.2893 17.9997 21.3393 7.34075 21.3283 7.23275V7.23275ZM12.3333 20.2297C5.56435 16.9577 5.24435 9.97475 5.29935 7.96775L12.3333 4.45075L19.3623 7.96575C19.3993 9.95475 19.0343 16.9837 12.3333 20.2297Z" fill="white"/>
<path d="M11.3333 12.919L9.04034 10.626L7.62634 12.04L11.3333 15.747L17.0403 10.04L15.6263 8.62598L11.3333 12.919Z" fill="white"/>
</svg>
